#!OML:ASF E:\Style4\Style4.ASF
:FULLY-SPECIFIED
:DEGREES
816
root -0.260829 16.5741 0.295979 1.54536 10.585 5.6795
lowerback 11.0467 3.7397 -0.57837
upperback 6.67387 4.92577 0.214086
thorax 0.715776 2.4614 0.0429719
lowerneck 8.49838 -0.926531 -4.04211
upperneck 1.64572 -1.57567 0.878413
head -0.874581 -0.80737 1.00528
rclavicle -5.20816e-014 1.03368e-014
rhumerus -29.1594 14.2353 -57.0803
rradius 135.922
rwrist -74.4814
rhand 58.6892 -6.28735
rfingers 7.12502
rthumb 74.2643 21.5763
lclavicle -5.20816e-014 1.03368e-014
lhumerus -16.9601 -12.0304 60.574
lradius 138.573
lwrist 75.6184
lhand 38.7628 51.0935
lfingers 7.12502
lthumb 61.3619 63.3599
rfemur -22.7538 -12.0677 14.0402
rtibia 59.3145
rfoot -32.8844 -22.8636
rtoes -12.6979
lfemur -24.2474 -0.599793 -24.5388
ltibia 54.5212
lfoot -28.9565 8.76766
ltoes -16.284
817
root -0.261346 16.5754 0.298885 1.57092 10.6477 5.70634
lowerback 11.0947 3.7757 -0.517254
upperback 6.60586 4.97743 0.10582
thorax 0.633419 2.491 -0.113754
lowerneck 7.6629 -1.01717 -3.79539
upperneck 2.62378 -1.63245 0.77341
head -0.42482 -0.842015 0.912691
rclavicle -4.65156e-014 3.97569e-015
rhumerus -29.2609 14.4883 -57.1301
rradius 135.927
rwrist -74.4065
rhand 57.3553 -5.9477
rfingers 7.12502
rthumb 73.8223 17.5129
lclavicle -4.65156e-014 3.97569e-015
lhumerus -16.5452 -12.6609 60.1168
lradius 138.498
lwrist 75.4108
lhand 38.9508 51.0937
lfingers 7.12502
lthumb 61.5198 63.1729
rfemur -22.7425 -12.1279 14.0135
rtibia 59.2927
rfoot -32.8192 -22.9177
rtoes -13.0084
lfemur -24.2699 -0.662324 -24.5614
ltibia 54.5265
lfoot -28.9395 8.75601
ltoes -16.2861
818
root -0.261088 16.5768 0.302123 1.56168 10.7241 5.67917
lowerback 11.1097 3.77767 -0.466681
upperback 6.58078 4.98433 0.0757094
thorax 0.606024 2.49644 -0.175511
lowerneck 6.65555 -1.06453 -3.67056
upperneck 3.80127 -1.63523 0.613788
head 0.105365 -0.851496 0.822651
rclavicle 3.37934e-014 -2.38542e-015
rhumerus -29.2037 14.8178 -57.0509
rradius 135.943
rwrist -74.4253
rhand 56.7749 -5.92946
rfingers 7.12502
rthumb 73.6005 15.6953
lclavicle 3.37934e-014 -2.38542e-015
lhumerus -16.3629 -13.1438 59.7961
lradius 138.521
lwrist 75.147
lhand 39.1793 50.9601
lfingers 7.12502
lthumb 61.7115 62.8086
rfemur -22.6868 -12.2023 14.0423
rtibia 59.2628
rfoot -32.7695 -22.987
rtoes -13.2249
lfemur -24.2589 -0.703003 -24.5295
ltibia 54.5374
lfoot -28.9111 8.85153
ltoes -16.8177
819
root -0.260899 16.5794 0.305223 1.57415 10.8006 5.65254
lowerback 11.1291 3.7835 -0.408444
upperback 6.5192 4.99663 0.0490844
thorax 0.538435 2.50452 -0.240469
lowerneck 5.4591 -1.11491 -3.66584
upperneck 5.27694 -1.63965 0.542779
head 0.754418 -0.866777 0.785445
rclavicle 6.16232e-014 -2.38542e-015
rhumerus -29.222 15.2101 -56.9655
rradius 135.961
rwrist -74.4612
rhand 56.8571 -5.89457
rfingers 7.12502
rthumb 73.633 15.9871
lclavicle 6.16232e-014 -2.38542e-015
lhumerus -16.3006 -13.6244 59.5736
lradius 138.597
lwrist 74.9636
lhand 39.1963 50.9879
lfingers 7.12502
lthumb 61.7257 62.8193
rfemur -22.6653 -12.24 14.076
rtibia 59.2362
rfoot -32.7422 -23.0362
rtoes -13.303
lfemur -24.2684 -0.754452 -24.5012
ltibia 54.5507
lfoot -28.8979 8.8871
ltoes -17.0872
820
root -0.262653 16.581 0.30566 1.59332 10.8581 5.59795
lowerback 11.2703 3.79941 -0.346468
upperback 6.36324 5.02056 0.0334081
thorax 0.30588 2.51763 -0.310606
lowerneck 4.15215 -1.18515 -3.69649
upperneck 6.96816 -1.66196 0.461978
head 1.50226 -0.894416 0.758293
rclavicle 3.22031e-014 -1.03368e-014
rhumerus -29.4018 15.7142 -56.9505
rradius 135.981
rwrist -74.3458
rhand 57.0487 -5.59403
rfingers 7.12502
rthumb 73.7073 16.8905
lclavicle 3.22031e-014 -1.03368e-014
lhumerus -16.1834 -14.3462 59.2102
lradius 138.612
lwrist 74.9022
lhand 38.9709 50.8132
lfingers 7.12502
lthumb 61.5367 62.8723
rfemur -22.6892 -12.2277 14.1582
rtibia 59.2222
rfoot -32.7718 -23.0437
rtoes -13.2111
lfemur -24.3354 -0.780126 -24.4357
ltibia 54.5884
lfoot -28.8563 8.93715
ltoes -17.4098
821
root -0.264649 16.5804 0.305685 1.59765 10.9171 5.54503
lowerback 11.4243 3.81536 -0.289608
upperback 6.20283 5.04417 0.0129392
thorax 0.0619618 2.53018 -0.384111
lowerneck 2.70872 -1.25142 -3.66922
upperneck 8.86383 -1.66443 0.349014
head 2.36745 -0.914255 0.712837
rclavicle -1.94809e-014 1.11319e-014
rhumerus -29.5561 16.293 -56.9376
rradius 135.991
rwrist -74.2874
rhand 57.0739 -5.39303
rfingers 7.12502
rthumb 73.7169 17.171
lclavicle -1.94809e-014 1.11319e-014
lhumerus -15.9615 -15.3466 58.6819
lradius 138.658
lwrist 75.0401
lhand 38.3619 50.5891
lfingers 7.12502
lthumb 61.0239 63.2476
rfemur -22.7172 -12.2497 14.2334
rtibia 59.2363
rfoot -32.732 -23.1069
rtoes -13.2955
lfemur -24.4035 -0.78697 -24.3702
ltibia 54.6463
lfoot -28.8372 8.94444
ltoes -17.6112
822
root -0.266401 16.5779 0.306318 1.60923 11.0128 5.49187
lowerback 11.5144 3.82212 -0.244571
upperback 6.06574 5.05565 -0.00113582
thorax -0.124624 2.53627 -0.437588
lowerneck 1.21883 -1.31305 -3.68078
upperneck 10.7789 -1.66151 0.313407
head 3.28847 -0.931664 0.697908
rclavicle -2.66371e-014 1.98785e-014
rhumerus -29.6312 16.8961 -56.8796
rradius 135.964
rwrist -74.2641
rhand 56.628 -5.13534
rfingers 7.12502
rthumb 73.5417 16.033
lclavicle -2.66371e-014 1.98785e-014
lhumerus -15.7252 -16.2727 58.211
lradius 138.656
lwrist 75.0045
lhand 38.0698 50.5389
lfingers 7.12502
lthumb 60.7768 63.4771
rfemur -22.7368 -12.3262 14.3124
rtibia 59.2695
rfoot -32.7239 -23.1545
rtoes -13.4019
lfemur -24.4813 -0.840751 -24.3041
ltibia 54.7257
lfoot -28.8078 8.9543
ltoes -17.7534
